<mxfile host="app.diagrams.net" modified="2023-12-04T02:31:36.953Z" agent="Mozilla/5.0 (Windows NT 10.0; Win64; x64) AppleWebKit/537.36 (KHTML, like Gecko) Chrome/119.0.0.0 Safari/537.36" version="22.1.5" etag="1TWq4NOC16_UDCBivkLs" type="github">
  <diagram name="Page-1" id="Cxyv5lRNddG8r2s_uuZ9">
    <mxGraphModel>
      <root>
        <mxCell id="0" />
        <mxCell id="1" parent="0" />
      </root>
    </mxGraphModel>
  </diagram>
</mxfile>
